<svg width="800" height="526" viewBox="0 0 800 526" fill="none" xmlns="http://www.w3.org/2000/svg">
<path d="M740.086 0.929688H59.9141C26.8234 0.929688 0 27.7531 0 60.8438V465.156C0 498.245 26.8234 525.07 59.9141 525.07H740.086C773.175 525.07 800 498.247 800 465.156V60.8438C800 27.7531 773.177 0.929688 740.086 0.929688Z" fill="#73AF00"/>
<path d="M392.828 74.2607L102.115 251.215C93.2857 256.589 93.2857 269.405 102.115 274.78L392.828 451.737C397.233 454.419 402.765 454.419 407.172 451.737L697.884 274.781C706.714 269.408 706.714 256.592 697.884 251.217L407.172 74.2607C402.767 71.5811 397.233 71.5811 392.828 74.2607Z" fill="#FFE15A"/>
<path d="M400 373.342C460.941 373.342 510.344 323.94 510.344 262.999C510.344 202.057 460.941 152.655 400 152.655C339.059 152.655 289.656 202.057 289.656 262.999C289.656 323.94 339.059 373.342 400 373.342Z" fill="#41479B"/>
<path d="M305.312 206.55C300.106 215.266 296.086 224.738 293.43 234.795C354.6 230.192 445.089 247.305 502.683 303.191C506.442 293.595 508.925 283.374 509.855 272.688C450.386 222.636 368.169 204.838 305.312 206.55Z" fill="#F5F5F5"/>
<path d="M404.57 300.655L407.508 309.464L416.794 309.536C417.995 309.546 418.494 311.08 417.526 311.794L410.056 317.311L412.858 326.164C413.22 327.311 411.914 328.26 410.937 327.56L403.383 322.16L395.828 327.56C394.85 328.258 393.545 327.311 393.908 326.164L396.709 317.311L389.239 311.794C388.272 311.08 388.77 309.546 389.972 309.536L399.258 309.464L402.195 300.655C402.576 299.513 404.189 299.513 404.57 300.655Z" fill="#F5F5F5"/>
<path d="M440.662 323.442L441.927 327.233L445.923 327.264C446.441 327.267 446.655 327.928 446.239 328.236L443.023 330.61L444.228 334.421C444.383 334.914 443.823 335.322 443.4 335.02L440.148 332.697L436.897 335.02C436.477 335.322 435.914 334.914 436.07 334.421L437.275 330.61L434.059 328.236C433.642 327.93 433.858 327.269 434.375 327.264L438.372 327.233L439.636 323.442C439.803 322.95 440.498 322.95 440.662 323.442Z" fill="#F5F5F5"/>
<path d="M388.966 283.919L390.23 287.709L394.226 287.741C394.744 287.744 394.959 288.405 394.542 288.713L391.326 291.086L392.531 294.897C392.686 295.391 392.126 295.799 391.705 295.497L388.453 293.174L385.201 295.497C384.781 295.799 384.219 295.391 384.373 294.897L385.578 291.086L382.362 288.713C381.947 288.406 382.161 287.745 382.678 287.741L386.675 287.709L387.939 283.919C388.106 283.431 388.801 283.431 388.966 283.919Z" fill="#F5F5F5"/>
<path d="M318.953 279.322L320.217 283.112L324.214 283.144C324.731 283.147 324.947 283.808 324.53 284.116L321.314 286.489L322.519 290.3C322.673 290.794 322.114 291.202 321.691 290.9L318.439 288.577L315.187 290.9C314.767 291.2 314.205 290.794 314.361 290.3L315.566 286.489L312.35 284.116C311.933 283.809 312.148 283.148 312.666 283.144L316.662 283.112L317.926 279.322C318.095 278.833 318.789 278.833 318.953 279.322Z" fill="#F5F5F5"/>
<path d="M377.522 322.135L378.786 325.925L382.783 325.956C383.3 325.96 383.515 326.62 383.098 326.928L379.883 329.302L381.087 333.113C381.242 333.606 380.683 334.014 380.261 333.713L377.009 331.389L373.758 333.713C373.337 334.014 372.775 333.606 372.929 333.113L374.134 329.302L370.919 326.928C370.503 326.622 370.717 325.961 371.234 325.956L375.231 325.925L376.495 322.135C376.664 321.644 377.359 321.644 377.522 322.135Z" fill="#F5F5F5"/>
<path d="M345.297 276.677L346.331 279.777L349.6 279.804C350.022 279.807 350.198 280.347 349.859 280.599L347.23 282.539L348.215 285.655C348.344 286.058 347.884 286.393 347.539 286.146L344.88 284.246L342.22 286.146C341.875 286.393 341.417 286.058 341.544 285.655L342.53 282.539L339.9 280.599C339.561 280.347 339.734 279.807 340.159 279.804L343.428 279.777L344.462 276.677C344.595 276.277 345.162 276.277 345.297 276.677Z" fill="#F5F5F5"/>
<path d="M443.467 212.679L444.761 216.557L448.848 216.588C449.378 216.591 449.597 217.268 449.17 217.583L445.883 220.011L447.116 223.91C447.277 224.414 446.7 224.832 446.27 224.524L442.944 222.146L439.617 224.524C439.186 224.833 438.613 224.413 438.772 223.91L440.005 220.011L436.717 217.583C436.291 217.269 436.511 216.594 437.039 216.588L441.127 216.557L442.42 212.679C442.589 212.172 443.3 212.172 443.467 212.679Z" fill="#F5F5F5"/>
<path d="M323.456 257.711L324.49 260.811L327.759 260.838C328.181 260.841 328.358 261.382 328.019 261.633L325.389 263.574L326.375 266.689C326.503 267.093 326.044 267.427 325.698 267.18L323.039 265.28L320.38 267.18C320.034 267.427 319.576 267.093 319.703 266.689L320.689 263.574L318.059 261.633C317.719 261.382 317.894 260.843 318.319 260.838L321.587 260.811L322.622 257.711C322.755 257.31 323.322 257.31 323.456 257.711Z" fill="#F5F5F5"/>
<path d="M339.238 301.408L340.803 306.103L345.753 306.141C346.394 306.145 346.66 306.962 346.144 307.344L342.161 310.284L343.655 315.003C343.849 315.614 343.153 316.12 342.631 315.747L338.603 312.867L334.575 315.747C334.055 316.119 333.358 315.614 333.552 315.003L335.045 310.284L331.063 307.344C330.547 306.962 330.813 306.145 331.453 306.141L336.403 306.103L337.969 301.408C338.177 300.798 339.036 300.798 339.238 301.408Z" fill="#F5F5F5"/>
<path d="M460.786 324.427L461.772 327.381L464.886 327.405C465.289 327.408 465.456 327.922 465.133 328.161L462.628 330.011L463.567 332.98C463.687 333.364 463.251 333.681 462.922 333.447L460.389 331.636L457.855 333.447C457.526 333.681 457.089 333.364 457.209 332.98L458.148 330.011L455.644 328.161C455.32 327.922 455.487 327.408 455.89 327.405L459.005 327.381L459.989 324.427C460.117 324.044 460.659 324.044 460.786 324.427Z" fill="#F5F5F5"/>
<path d="M471.683 301.88L472.947 305.67L476.944 305.702C477.461 305.705 477.676 306.366 477.259 306.674L474.044 309.047L475.248 312.858C475.403 313.352 474.844 313.76 474.422 313.458L471.17 311.135L467.919 313.458C467.498 313.76 466.936 313.352 467.092 312.858L468.297 309.047L465.081 306.674C464.666 306.367 464.88 305.706 465.397 305.702L469.394 305.67L470.658 301.88C470.823 301.388 471.519 301.388 471.683 301.88Z" fill="#F5F5F5"/>
</svg>
