<svg width="800" height="525" viewBox="0 0 800 525" fill="none" xmlns="http://www.w3.org/2000/svg">
<path d="M740.086 0.0717773H59.9141C26.8234 0.0717773 0 26.8952 0 59.9858V464.297C0 497.386 26.8234 524.211 59.9141 524.211H740.086C773.175 524.211 800 497.387 800 464.297V59.9858C800 26.8952 773.177 0.0717773 740.086 0.0717773Z" fill="#F5F5F5"/>
<path d="M3.29492 40.3905H796.703C788.584 16.9265 766.309 0.0717773 740.086 0.0717773H59.9137C33.6887 0.0717773 11.4152 16.9265 3.29492 40.3905Z" fill="#FF4B55"/>
<path d="M800 161.344H0V201.661H800V161.344Z" fill="#FF4B55"/>
<path d="M800 80.7031H0V121.02H800V80.7031Z" fill="#FF4B55"/>
<path d="M0 268.506C0 276.123 6.17656 282.3 13.7938 282.3H800V241.981H0V268.506Z" fill="#FF4B55"/>
<path d="M800 403.266H0V443.584H800V403.266Z" fill="#FF4B55"/>
<path d="M796.704 483.891H3.29492C11.4152 507.355 33.6902 524.209 59.9137 524.209H740.086C766.311 524.209 788.584 507.355 796.704 483.891Z" fill="#FF4B55"/>
<path d="M800 322.625H0V362.942H800V322.625Z" fill="#FF4B55"/>
<path d="M13.7938 282.3H358.622C366.239 282.3 372.416 276.123 372.416 268.506V13.8641C372.416 6.24531 366.239 0.0703125 358.622 0.0703125H59.9141C26.8234 0.071875 0 26.8953 0 59.9859V268.506C0 276.125 6.17656 282.3 13.7938 282.3Z" fill="#41479B"/>
<path d="M38.7326 31.7296L41.7857 40.8858L51.4373 40.9593C52.6873 40.9702 53.2045 42.564 52.1998 43.3061L44.4357 49.039L47.3482 58.2405C47.7263 59.4311 46.3685 60.4186 45.3513 59.6905L37.4998 54.0796L29.6482 59.6921C28.631 60.4202 27.2763 59.4327 27.6513 58.2421L30.5638 49.0405L22.7998 43.3077C21.7951 42.564 22.3123 40.9702 23.5623 40.9608L33.2138 40.8874L36.267 31.7312C36.6607 30.5437 38.3357 30.5437 38.7326 31.7296Z" fill="#F5F5F5"/>
<path d="M38.7326 79.6264L41.7857 88.7826L51.4373 88.8561C52.6873 88.867 53.2045 90.4592 52.1998 91.2029L44.4357 96.9373L47.3482 106.139C47.7263 107.329 46.3685 108.317 45.3513 107.589L37.4998 101.978L29.6482 107.59C28.631 108.317 27.2763 107.331 27.6513 106.14L30.5638 96.9389L22.7998 91.2045C21.7951 90.4607 22.3123 88.8686 23.5623 88.8576L33.2138 88.7842L36.267 79.6279C36.6607 78.442 38.3357 78.442 38.7326 79.6264Z" fill="#F5F5F5"/>
<path d="M38.7326 127.525L41.7857 136.681L51.4373 136.755C52.6873 136.766 53.2045 138.358 52.1998 139.102L44.4357 144.836L47.3482 154.037C47.7263 155.228 46.3685 156.216 45.3513 155.488L37.4998 149.877L29.6482 155.489C28.631 156.216 27.2763 155.231 27.6513 154.039L30.5638 144.837L22.7998 139.103C21.7951 138.359 22.3123 136.767 23.5623 136.756L33.2138 136.683L36.267 127.527C36.6607 126.339 38.3357 126.339 38.7326 127.525Z" fill="#F5F5F5"/>
<path d="M38.7326 175.421L41.7857 184.578L51.4373 184.651C52.6873 184.662 53.2045 186.256 52.1998 186.998L44.4357 192.732L47.3482 201.934C47.7263 203.125 46.3685 204.112 45.3513 203.384L37.4998 197.773L29.6482 203.386C28.631 204.112 27.2763 203.126 27.6513 201.936L30.5638 192.734L22.7998 187C21.7951 186.259 22.3123 184.664 23.5623 184.653L33.2138 184.579L36.267 175.423C36.6607 174.236 38.3357 174.236 38.7326 175.421Z" fill="#F5F5F5"/>
<path d="M38.7326 223.319L41.7857 232.475L51.4373 232.548C52.6873 232.559 53.2045 234.152 52.1998 234.895L44.4357 240.63L47.3482 249.831C47.7263 251.022 46.3685 252.009 45.3513 251.281L37.4998 245.67L29.6482 251.283C28.631 252.009 27.2763 251.023 27.6513 249.833L30.5638 240.631L22.7998 234.897C21.7951 234.153 22.3123 232.561 23.5623 232.55L33.2138 232.477L36.267 223.32C36.6607 222.134 38.3357 222.134 38.7326 223.319Z" fill="#F5F5F5"/>
<path d="M75.9089 55.2125L78.962 64.3687L88.6136 64.4422C89.8636 64.4531 90.3807 66.0469 89.376 66.7891L81.612 72.5234L84.5245 81.725C84.9026 82.9156 83.5448 83.9031 82.5276 83.175L74.676 77.5625L66.8245 83.175C65.8073 83.9016 64.4526 82.9156 64.8276 81.725L67.7401 72.5234L59.976 66.7891C58.9714 66.0453 59.4886 64.4531 60.7386 64.4422L70.3901 64.3687L73.4432 55.2125C73.837 54.0281 75.5136 54.0281 75.9089 55.2125Z" fill="#F5F5F5"/>
<path d="M75.9089 103.111L78.962 112.267L88.6136 112.341C89.8636 112.352 90.3807 113.946 89.376 114.688L81.612 120.422L84.5245 129.624C84.9026 130.814 83.5448 131.802 82.5276 131.074L74.676 125.461L66.8245 131.074C65.8073 131.8 64.4526 130.816 64.8276 129.624L67.7401 120.422L59.976 114.688C58.9714 113.947 59.4886 112.352 60.7386 112.341L70.3901 112.267L73.4432 103.111C73.837 101.925 75.5136 101.925 75.9089 103.111Z" fill="#F5F5F5"/>
<path d="M75.9089 151.008L78.962 160.164L88.6136 160.237C89.8636 160.248 90.3807 161.84 89.376 162.584L81.612 168.319L84.5245 177.52C84.9026 178.711 83.5448 179.698 82.5276 178.97L74.676 173.358L66.8245 178.97C65.8073 179.697 64.4526 178.711 64.8276 177.52L67.7401 168.319L59.976 162.584C58.9714 161.84 59.4886 160.248 60.7386 160.237L70.3901 160.164L73.4432 151.008C73.837 149.822 75.5136 149.822 75.9089 151.008Z" fill="#F5F5F5"/>
<path d="M75.9089 198.905L78.962 208.061L88.6136 208.135C89.8636 208.146 90.3807 209.738 89.376 210.481L81.612 216.216L84.5245 225.417C84.9026 226.608 83.5448 227.596 82.5276 226.867L74.676 221.255L66.8245 226.867C65.8073 227.596 64.4526 226.608 64.8276 225.417L67.7401 216.216L59.976 210.481C58.9714 209.738 59.4886 208.146 60.7386 208.135L70.3901 208.061L73.4432 198.905C73.837 197.721 75.5136 197.721 75.9089 198.905Z" fill="#F5F5F5"/>
<path d="M113.086 31.7298L116.139 40.886L125.79 40.9595C127.04 40.9704 127.557 42.5642 126.553 43.3063L118.789 49.0392L121.701 58.2407C122.079 59.4313 120.722 60.4188 119.704 59.6907L111.853 54.0782L104.001 59.6907C102.984 60.4188 101.629 59.4313 102.004 58.2407L104.917 49.0392L97.1528 43.3063C96.1481 42.5626 96.6653 40.9688 97.9153 40.9595L107.567 40.886L110.62 31.7298C111.014 30.5438 112.69 30.5438 113.086 31.7298Z" fill="#F5F5F5"/>
<path d="M113.086 79.6266L116.139 88.7828L125.79 88.8563C127.04 88.8672 127.557 90.4594 126.553 91.2031L118.789 96.9375L121.701 106.139C122.079 107.33 120.722 108.317 119.704 107.589L111.853 101.977L104.001 107.589C102.984 108.316 101.629 107.33 102.004 106.139L104.917 96.9375L97.1528 91.2031C96.1481 90.4594 96.6653 88.8672 97.9153 88.8563L107.567 88.7828L110.62 79.6266C111.014 78.4422 112.69 78.4422 113.086 79.6266Z" fill="#F5F5F5"/>
<path d="M113.086 127.525L116.139 136.681L125.79 136.755C127.04 136.766 127.557 138.358 126.553 139.102L118.789 144.836L121.701 154.038C122.079 155.228 120.722 156.216 119.704 155.488L111.853 149.875L104.001 155.488C102.984 156.214 101.629 155.23 102.004 154.038L104.917 144.836L97.1528 139.102C96.1481 138.358 96.6653 136.766 97.9153 136.755L107.567 136.681L110.62 127.525C111.014 126.339 112.69 126.339 113.086 127.525Z" fill="#F5F5F5"/>
<path d="M113.086 175.422L116.139 184.578L125.79 184.651C127.04 184.662 127.557 186.256 126.553 186.998L118.789 192.733L121.701 201.934C122.079 203.125 120.722 204.112 119.704 203.384L111.853 197.772L104.001 203.384C102.984 204.111 101.629 203.125 102.004 201.934L104.917 192.733L97.1528 186.998C96.1481 186.258 96.6653 184.662 97.9153 184.651L107.567 184.578L110.62 175.422C111.014 174.236 112.69 174.236 113.086 175.422Z" fill="#F5F5F5"/>
<path d="M113.086 223.319L116.139 232.475L125.79 232.549C127.04 232.56 127.557 234.152 126.553 234.896L118.789 240.63L121.701 249.831C122.079 251.022 120.722 252.01 119.704 251.281L111.853 245.669L104.001 251.281C102.984 252.008 101.629 251.022 102.004 249.831L104.917 240.63L97.1528 234.896C96.1481 234.152 96.6653 232.56 97.9153 232.549L107.567 232.475L110.62 223.319C111.014 222.135 112.69 222.135 113.086 223.319Z" fill="#F5F5F5"/>
<path d="M150.263 55.2125L153.316 64.3687L162.968 64.4422C164.218 64.4531 164.735 66.0469 163.731 66.7891L155.966 72.5234L158.879 81.725C159.257 82.9156 157.899 83.9031 156.882 83.175L149.031 77.5625L141.179 83.175C140.162 83.9016 138.807 82.9156 139.182 81.725L142.095 72.5234L134.331 66.7891C133.326 66.0453 133.843 64.4531 135.093 64.4422L144.745 64.3687L147.798 55.2125C148.19 54.0281 149.868 54.0281 150.263 55.2125Z" fill="#F5F5F5"/>
<path d="M150.263 103.111L153.316 112.267L162.968 112.341C164.218 112.352 164.735 113.946 163.731 114.688L155.966 120.422L158.879 129.624C159.257 130.814 157.899 131.802 156.882 131.074L149.031 125.461L141.179 131.074C140.162 131.8 138.807 130.816 139.182 129.624L142.095 120.422L134.331 114.688C133.326 113.947 133.843 112.352 135.093 112.341L144.745 112.267L147.798 103.111C148.19 101.925 149.868 101.925 150.263 103.111Z" fill="#F5F5F5"/>
<path d="M150.263 151.008L153.316 160.164L162.968 160.237C164.218 160.248 164.735 161.84 163.731 162.584L155.966 168.319L158.879 177.52C159.257 178.711 157.899 179.698 156.882 178.97L149.031 173.358L141.179 178.97C140.162 179.697 138.807 178.711 139.182 177.52L142.095 168.319L134.331 162.584C133.326 161.84 133.843 160.248 135.093 160.237L144.745 160.164L147.798 151.008C148.19 149.822 149.868 149.822 150.263 151.008Z" fill="#F5F5F5"/>
<path d="M150.263 198.905L153.316 208.061L162.968 208.135C164.218 208.146 164.735 209.738 163.731 210.481L155.966 216.216L158.879 225.417C159.257 226.608 157.899 227.596 156.882 226.867L149.031 221.255L141.179 226.867C140.162 227.596 138.807 226.608 139.182 225.417L142.095 216.216L134.331 210.481C133.326 209.738 133.843 208.146 135.093 208.135L144.745 208.061L147.798 198.905C148.19 197.721 149.868 197.721 150.263 198.905Z" fill="#F5F5F5"/>
<path d="M187.44 31.7296L190.493 40.8858L200.145 40.9593C201.395 40.9702 201.912 42.564 200.907 43.3061L193.143 49.039L196.056 58.2405C196.434 59.4311 195.076 60.4186 194.059 59.6905L186.206 54.0796L178.354 59.6921C177.337 60.4202 175.982 59.4327 176.357 58.2421L179.27 49.0405L171.506 43.3077C170.501 42.564 171.018 40.9702 172.268 40.9608L181.92 40.8874L184.973 31.7312C185.368 30.5437 187.045 30.5437 187.44 31.7296Z" fill="#F5F5F5"/>
<path d="M187.44 79.6266L190.493 88.7828L200.145 88.8563C201.395 88.8672 201.912 90.4594 200.907 91.2031L193.143 96.9375L196.056 106.139C196.434 107.33 195.076 108.317 194.059 107.589L186.206 101.977L178.354 107.589C177.337 108.316 175.982 107.33 176.357 106.139L179.27 96.9375L171.506 91.2031C170.501 90.4594 171.018 88.8672 172.268 88.8563L181.92 88.7828L184.973 79.6266C185.368 78.4422 187.045 78.4422 187.44 79.6266Z" fill="#F5F5F5"/>
<path d="M187.44 127.525L190.493 136.682L200.145 136.755C201.395 136.766 201.912 138.358 200.907 139.102L193.143 144.836L196.056 154.038C196.434 155.229 195.076 156.216 194.059 155.488L186.206 149.874L178.354 155.486C177.337 156.213 175.982 155.227 176.357 154.036L179.27 144.835L171.506 139.1C170.501 138.357 171.018 136.764 172.268 136.754L181.92 136.68L184.973 127.524C185.368 126.339 187.045 126.339 187.44 127.525Z" fill="#F5F5F5"/>
<path d="M187.44 175.422L190.493 184.578L200.145 184.651C201.395 184.662 201.912 186.256 200.907 186.998L193.143 192.733L196.056 201.934C196.434 203.125 195.076 204.112 194.059 203.384L186.206 197.772L178.354 203.384C177.337 204.111 175.982 203.125 176.357 201.934L179.27 192.733L171.506 186.998C170.501 186.258 171.018 184.662 172.268 184.651L181.92 184.578L184.973 175.422C185.368 174.236 187.045 174.236 187.44 175.422Z" fill="#F5F5F5"/>
<path d="M187.44 223.319L190.493 232.475L200.145 232.549C201.395 232.56 201.912 234.152 200.907 234.896L193.143 240.63L196.056 249.831C196.434 251.022 195.076 252.01 194.059 251.281L186.206 245.669L178.354 251.281C177.337 252.008 175.982 251.022 176.357 249.831L179.27 240.63L171.506 234.896C170.501 234.152 171.018 232.56 172.268 232.549L181.92 232.475L184.973 223.319C185.368 222.135 187.045 222.135 187.44 223.319Z" fill="#F5F5F5"/>
<path d="M224.616 55.2125L227.67 64.3687L237.321 64.4422C238.571 64.4531 239.088 66.0469 238.084 66.7891L230.32 72.5234L233.232 81.725C233.61 82.9156 232.252 83.9031 231.235 83.175L223.384 77.5625L215.532 83.175C214.515 83.9016 213.16 82.9156 213.535 81.725L216.448 72.5234L208.684 66.7891C207.679 66.0453 208.196 64.4531 209.446 64.4422L219.098 64.3687L222.151 55.2125C222.546 54.0281 224.221 54.0281 224.616 55.2125Z" fill="#F5F5F5"/>
<path d="M224.616 103.111L227.67 112.267L237.321 112.341C238.571 112.352 239.088 113.946 238.084 114.688L230.32 120.422L233.232 129.624C233.61 130.814 232.252 131.802 231.235 131.074L223.384 125.461L215.532 131.074C214.515 131.8 213.16 130.816 213.535 129.624L216.448 120.422L208.684 114.688C207.679 113.947 208.196 112.352 209.446 112.341L219.098 112.267L222.151 103.111C222.546 101.925 224.221 101.925 224.616 103.111Z" fill="#F5F5F5"/>
<path d="M224.616 151.008L227.67 160.164L237.321 160.237C238.571 160.248 239.088 161.84 238.084 162.584L230.32 168.319L233.232 177.52C233.61 178.711 232.252 179.698 231.235 178.97L223.384 173.358L215.532 178.97C214.515 179.697 213.16 178.711 213.535 177.52L216.448 168.319L208.684 162.584C207.679 161.84 208.196 160.248 209.446 160.237L219.098 160.164L222.151 151.008C222.546 149.822 224.221 149.822 224.616 151.008Z" fill="#F5F5F5"/>
<path d="M224.616 198.905L227.67 208.061L237.321 208.135C238.571 208.146 239.088 209.738 238.084 210.481L230.32 216.216L233.232 225.417C233.61 226.608 232.252 227.596 231.235 226.867L223.384 221.255L215.532 226.867C214.515 227.596 213.16 226.608 213.535 225.417L216.448 216.216L208.684 210.481C207.679 209.738 208.196 208.146 209.446 208.135L219.098 208.061L222.151 198.905C222.546 197.721 224.221 197.721 224.616 198.905Z" fill="#F5F5F5"/>
<path d="M261.796 31.7298L264.849 40.886L274.5 40.9595C275.75 40.9704 276.267 42.5642 275.263 43.3063L267.499 49.0392L270.411 58.2407C270.789 59.4313 269.432 60.4188 268.414 59.6907L260.563 54.0782L252.711 59.6907C251.694 60.4188 250.339 59.4313 250.714 58.2407L253.627 49.0392L245.863 43.3063C244.858 42.5626 245.375 40.9688 246.625 40.9595L256.277 40.886L259.33 31.7298C259.722 30.5438 261.4 30.5438 261.796 31.7298Z" fill="#F5F5F5"/>
<path d="M261.796 79.6266L264.849 88.7828L274.5 88.8563C275.75 88.8672 276.267 90.4594 275.263 91.2031L267.499 96.9375L270.411 106.139C270.789 107.33 269.432 108.317 268.414 107.589L260.563 101.977L252.711 107.589C251.694 108.316 250.339 107.33 250.714 106.139L253.627 96.9375L245.863 91.2031C244.858 90.4594 245.375 88.8672 246.625 88.8563L256.277 88.7828L259.33 79.6266C259.722 78.4422 261.4 78.4422 261.796 79.6266Z" fill="#F5F5F5"/>
<path d="M261.796 127.525L264.849 136.681L274.5 136.755C275.75 136.766 276.267 138.358 275.263 139.102L267.499 144.836L270.411 154.038C270.789 155.228 269.432 156.216 268.414 155.488L260.563 149.875L252.711 155.488C251.694 156.214 250.339 155.23 250.714 154.038L253.627 144.836L245.863 139.102C244.858 138.358 245.375 136.766 246.625 136.755L256.277 136.681L259.33 127.525C259.722 126.339 261.4 126.339 261.796 127.525Z" fill="#F5F5F5"/>
<path d="M261.796 175.422L264.849 184.578L274.5 184.651C275.75 184.662 276.267 186.256 275.263 186.998L267.499 192.733L270.411 201.934C270.789 203.125 269.432 204.112 268.414 203.384L260.563 197.772L252.711 203.384C251.694 204.111 250.339 203.125 250.714 201.934L253.627 192.733L245.863 186.998C244.858 186.258 245.375 184.662 246.625 184.651L256.277 184.578L259.33 175.422C259.722 174.236 261.4 174.236 261.796 175.422Z" fill="#F5F5F5"/>
<path d="M261.796 223.319L264.849 232.475L274.5 232.549C275.75 232.56 276.267 234.152 275.263 234.896L267.499 240.63L270.411 249.831C270.789 251.022 269.432 252.01 268.414 251.281L260.563 245.669L252.711 251.281C251.694 252.008 250.339 251.022 250.714 249.831L253.627 240.63L245.863 234.896C244.858 234.152 245.375 232.56 246.625 232.549L256.277 232.475L259.33 223.319C259.722 222.135 261.4 222.135 261.796 223.319Z" fill="#F5F5F5"/>
<path d="M298.972 55.2125L302.025 64.3687L311.677 64.4422C312.927 64.4531 313.444 66.0469 312.439 66.7891L304.675 72.5234L307.587 81.725C307.966 82.9156 306.608 83.9031 305.591 83.175L297.739 77.5625L289.887 83.175C288.87 83.9016 287.516 82.9156 287.891 81.725L290.803 72.5234L283.039 66.7891C282.034 66.0453 282.552 64.4531 283.802 64.4422L293.453 64.3687L296.506 55.2125C296.9 54.0281 298.577 54.0281 298.972 55.2125Z" fill="#F5F5F5"/>
<path d="M298.972 103.111L302.025 112.267L311.677 112.341C312.927 112.352 313.444 113.946 312.439 114.688L304.675 120.422L307.587 129.624C307.966 130.814 306.608 131.802 305.591 131.074L297.739 125.461L289.887 131.074C288.87 131.8 287.516 130.816 287.891 129.624L290.803 120.422L283.039 114.688C282.034 113.947 282.552 112.352 283.802 112.341L293.453 112.267L296.506 103.111C296.9 101.925 298.577 101.925 298.972 103.111Z" fill="#F5F5F5"/>
<path d="M298.972 151.008L302.025 160.164L311.677 160.237C312.927 160.248 313.444 161.84 312.439 162.584L304.675 168.319L307.587 177.52C307.966 178.711 306.608 179.698 305.591 178.97L297.739 173.358L289.887 178.97C288.87 179.697 287.516 178.711 287.891 177.52L290.803 168.319L283.039 162.584C282.034 161.84 282.552 160.248 283.802 160.237L293.453 160.164L296.506 151.008C296.9 149.822 298.577 149.822 298.972 151.008Z" fill="#F5F5F5"/>
<path d="M298.972 198.905L302.025 208.061L311.677 208.135C312.927 208.146 313.444 209.738 312.439 210.481L304.675 216.216L307.587 225.417C307.966 226.608 306.608 227.596 305.591 226.867L297.739 221.255L289.887 226.867C288.87 227.596 287.516 226.608 287.891 225.417L290.803 216.216L283.039 210.481C282.034 209.738 282.552 208.146 283.802 208.135L293.453 208.061L296.506 198.905C296.9 197.721 298.577 197.721 298.972 198.905Z" fill="#F5F5F5"/>
<path d="M336.15 31.7298L339.203 40.886L348.855 40.9595C350.105 40.9704 350.622 42.5642 349.617 43.3063L341.853 49.0392L344.766 58.2407C345.144 59.4313 343.786 60.4188 342.769 59.6907L334.917 54.0782L327.066 59.6907C326.049 60.4188 324.694 59.4313 325.069 58.2407L327.981 49.0392L320.217 43.3063C319.213 42.5626 319.73 40.9688 320.98 40.9595L330.631 40.886L333.684 31.7298C334.078 30.5438 335.753 30.5438 336.15 31.7298Z" fill="#F5F5F5"/>
<path d="M336.15 79.6266L339.203 88.7828L348.855 88.8563C350.105 88.8672 350.622 90.4594 349.617 91.2031L341.853 96.9375L344.766 106.139C345.144 107.33 343.786 108.317 342.769 107.589L334.917 101.977L327.066 107.589C326.049 108.316 324.694 107.33 325.069 106.139L327.981 96.9375L320.217 91.2031C319.213 90.4594 319.73 88.8672 320.98 88.8563L330.631 88.7828L333.684 79.6266C334.078 78.4422 335.753 78.4422 336.15 79.6266Z" fill="#F5F5F5"/>
<path d="M336.15 127.525L339.203 136.681L348.855 136.755C350.105 136.766 350.622 138.358 349.617 139.102L341.853 144.836L344.766 154.038C345.144 155.228 343.786 156.216 342.769 155.488L334.917 149.875L327.066 155.488C326.049 156.214 324.694 155.23 325.069 154.038L327.981 144.836L320.217 139.102C319.213 138.358 319.73 136.766 320.98 136.755L330.631 136.681L333.684 127.525C334.078 126.339 335.753 126.339 336.15 127.525Z" fill="#F5F5F5"/>
<path d="M336.15 175.422L339.203 184.578L348.855 184.651C350.105 184.662 350.622 186.256 349.617 186.998L341.853 192.733L344.766 201.934C345.144 203.125 343.786 204.112 342.769 203.384L334.917 197.772L327.066 203.384C326.049 204.111 324.694 203.125 325.069 201.934L327.981 192.733L320.217 186.998C319.213 186.258 319.73 184.662 320.98 184.651L330.631 184.578L333.684 175.422C334.078 174.236 335.753 174.236 336.15 175.422Z" fill="#F5F5F5"/>
<path d="M336.15 223.319L339.203 232.475L348.855 232.549C350.105 232.56 350.622 234.152 349.617 234.896L341.853 240.63L344.766 249.831C345.144 251.022 343.786 252.01 342.769 251.281L334.917 245.669L327.066 251.281C326.049 252.008 324.694 251.022 325.069 249.831L327.981 240.63L320.217 234.896C319.213 234.152 319.73 232.56 320.98 232.549L330.631 232.475L333.684 223.319C334.078 222.135 335.753 222.135 336.15 223.319Z" fill="#F5F5F5"/>
</svg>
