<svg xmlns="http://www.w3.org/2000/svg" height="100%" viewBox="0 0 48 60" fill="none" class="w-12 flex-shrink-0"><g clip-path="url(#a-10842091084)"><path fill="#A5820B" d="M48 42.76v-26.5c0-3.79-2.66-7.06-6.37-7.83L27.26 5.435a15.9 15.9 0 0 0-6.525 0L6.365 8.43A8 8 0 0 0 0 16.26v26.505c0 2.86 1.525 5.5 4 6.93l16 9.24a8 8 0 0 0 8 0l16-9.24c2.475-1.43 4-4.07 4-6.93z"></path><path fill="url(#b-083058309480923)" d="M22.751 39.255h3.135l20.065-11.7.36-18.305-2.79-4.005-19.52-3.96-19.525 4.5-2.695 2.88V27.17z"></path><path fill="url(#c-0283503805834)" d="m2.501 27.17 21.5 12.835 21.5-12.575 1.62 2.615-.81 11.005-2.34 3.2-19.16 10.205-4.56-.54L2.501 42.58l-.72-4.475z"></path><path fill="#fff" d="M10.25 18h-2.5v2.5h2.5zM12.75 15.5h-2.5V18h2.5zM15.25 13h-2.5v2.5h2.5zM17.75 10.5h-2.5V13h2.5zM12.75 20.5h-2.5V23h2.5zM15.25 23h-2.5v2.5h2.5zM17.75 25.5h-2.5V28h2.5zM25.25 18h-2.5v2.5h2.5zM25.25 15.5h-2.5V18h2.5zM27.75 13h-2.5v2.5h2.5zM27.75 10.5h-2.5V13h2.5zM22.75 25.5h-2.5V28h2.5zM22.75 23h-2.5v2.5h2.5zM25.25 20.5h-2.5V23h2.5zM22.75 28h-2.5v2.5h2.5zM27.75 8h-2.5v2.5h2.5zM37.75 20.5h2.5V18h-2.5zM35.25 23h2.5v-2.5h-2.5zM32.75 25.5h2.5V23h-2.5zM30.25 28h2.5v-2.5h-2.5zM35.25 18h2.5v-2.5h-2.5zM32.75 15.5h2.5V13h-2.5zM30.25 13h2.5v-2.5h-2.5z"></path><path fill="#F7DB7A" d="m23.974 49.515-1.86.985c-.22.11-.44-.055-.385-.275l.385-2.08-1.535-1.48c-.165-.165-.055-.44.165-.495l2.08-.33.93-1.915c.11-.22.385-.22.495 0l.93 1.915 2.08.33c.22.055.33.33.165.495l-1.535 1.48.385 2.08c.055.22-.22.385-.385.275zM32.492 45.225l-1.63.87c-.165.11-.38-.055-.325-.215l.325-1.79-1.305-1.25c-.11-.11-.055-.38.11-.38l1.79-.27.815-1.63a.253.253 0 0 1 .435 0l.815 1.63 1.79.27c.165.055.27.27.11.38l-1.305 1.25.325 1.79c.055.165-.165.325-.325.215l-1.63-.87zM39.462 40.685l-1.31.655c-.165.11-.33-.055-.33-.22l.275-1.42-1.04-1.04c-.11-.11-.055-.33.11-.38l1.475-.22.655-1.31c.055-.165.33-.165.38 0l.655 1.31 1.475.22c.165 0 .275.275.11.38l-1.04 1.04.275 1.42c.055.165-.165.33-.33.22l-1.365-.655z"></path><path fill="#A5820B" d="M41.12 5.775 26.75 2.78a13.5 13.5 0 0 0-2.755-.285q-1.381 0-2.755.285L6.88 5.775A5.53 5.53 0 0 0 2.5 11.16v1c0-2.59 1.84-4.855 4.38-5.385L21.25 3.78q1.374-.285 2.755-.285t2.755.285l14.37 2.995a5.53 5.53 0 0 1 4.38 5.385v-1c0-2.59-1.84-4.855-4.38-5.385z"></path><path fill="#D5A80E" d="m44 30.595-16 9.24a8 8 0 0 1-8 0l-16-9.24c-.55-.32-1.05-.7-1.5-1.125v1c.45.425.95.805 1.5 1.125l16 9.24a8 8 0 0 0 8 0l16-9.24c.55-.32 1.05-.7 1.5-1.125v-1c-.45.425-.95.805-1.5 1.125"></path><path fill="url(#d-827539840934)" d="M41.63 3.33 27.265.335a15.9 15.9 0 0 0-6.525 0L6.37 3.33A8 8 0 0 0 0 11.16v27.505c0 2.86 1.525 5.5 4 6.93l16 9.24a8 8 0 0 0 8 0l16-9.24c2.475-1.43 4-4.07 4-6.93V11.16c0-3.79-2.66-7.06-6.37-7.83m3.87 35.335a5.52 5.52 0 0 1-2.75 4.765l-16 9.24a5.51 5.51 0 0 1-5.5 0l-16-9.24a5.52 5.52 0 0 1-2.75-4.765V29.47c.45.425.95.805 1.5 1.125l16 9.24a8 8 0 0 0 8 0l16-9.24c.55-.32 1.05-.7 1.5-1.125zm0-15a5.52 5.52 0 0 1-2.75 4.765l-16 9.24a5.51 5.51 0 0 1-5.5 0l-16-9.245A5.52 5.52 0 0 1 2.5 23.66v-12.5c0-2.59 1.84-4.855 4.38-5.385L21.25 2.78q1.374-.285 2.755-.285t2.755.285l14.37 2.995a5.53 5.53 0 0 1 4.38 5.385v12.505z"></path><path fill="#F7DB7A" d="M13.887 46.095c-.165.11-.38-.055-.325-.215l.325-1.79-1.305-1.25c-.165-.11-.055-.325.11-.38l1.79-.27.815-1.63a.253.253 0 0 1 .435 0l.815 1.63 1.79.27c.165 0 .215.27.11.38l-1.305 1.25.325 1.79c.055.165-.165.325-.325.215l-1.63-.87-1.63.87zM7.177 41.34c-.165.11-.38-.055-.33-.22l.275-1.42-1.04-1.04c-.165-.11-.055-.38.11-.38l1.475-.22.655-1.31c.055-.165.33-.165.38 0l.655 1.31 1.475.22c.165.055.22.275.11.38l-1.04 1.04.275 1.42c0 .165-.165.33-.33.22l-1.31-.655-1.365.655z"></path></g><defs><linearGradient id="b-083058309480923" x1="4.624" x2="42.584" y1="1.285" y2="40.12" gradientUnits="userSpaceOnUse"><stop stop-color="#3F4273"></stop><stop offset="1" stop-color="#252746"></stop></linearGradient><linearGradient id="c-0283503805834" x1="1.781" x2="50.939" y1="28.219" y2="41.126" gradientUnits="userSpaceOnUse"><stop stop-color="#3890FA"></stop><stop offset="1" stop-color="#0062B7"></stop></linearGradient><linearGradient id="d-827539840934" x1="0" x2="48" y1="0" y2="55.999" gradientUnits="userSpaceOnUse"><stop stop-color="#FAE8AB"></stop><stop offset="1" stop-color="#F4D055"></stop></linearGradient><clipPath id="a-10842091084"><path fill="#fff" d="M0 0h48v60H0z"></path></clipPath></defs></svg>