<svg xmlns="http://www.w3.org/2000/svg" height="100%" viewBox="0 0 48 60" fill="none" class="w-12 flex-shrink-0"><g clip-path="url(#a)"><path fill="#A5820B" d="M35.055 59.76 24 53.835 12.945 59.76c-1.33.715-2.945-.25-2.945-1.765V40.59h28v17.405c0 1.51-1.61 2.475-2.945 1.765"></path><path fill="url(#b)" d="M35.055 58.76 24 52.835 12.945 58.76c-1.33.715-2.945-.25-2.945-1.765V39.59h28v17.405c0 1.51-1.61 2.475-2.945 1.765"></path><path fill="#626596" d="M0 15.12v17.99c0 3.445 2.205 6.5 5.47 7.59l14.735 4.91c2.465.82 5.125.82 7.59 0L42.53 40.7A8 8 0 0 0 48 33.11V15.12c0-3.445-2.205-6.5-5.47-7.59L27.795 2.615a12 12 0 0 0-7.59 0L5.47 7.53A8 8 0 0 0 0 15.12"></path><path fill="url(#c)" d="M0 13.115v15.99c0 3.445 2.205 6.5 5.47 7.59l14.735 4.91c2.465.82 5.125.82 7.59 0l14.735-4.91a8 8 0 0 0 5.47-7.59v-15.99c0-3.445-2.205-6.5-5.47-7.59L27.795.615a12 12 0 0 0-7.59 0L5.47 5.53A8 8 0 0 0 0 13.115"></path><path fill="url(#d)" d="M24 2.505c-1.02 0-2.035.16-3.005.485L6.26 7.9a5.49 5.49 0 0 0-3.76 5.22v15.99c0 2.37 1.51 4.47 3.76 5.22l14.735 4.91c1.94.645 4.07.645 6.01 0l14.735-4.91a5.49 5.49 0 0 0 3.76-5.22V13.115c0-2.37-1.51-4.47-3.76-5.22l-14.735-4.91A9.5 9.5 0 0 0 24 2.5z"></path><path fill="#626596" d="M41.74 7.9 27.005 2.985A9.5 9.5 0 0 0 24 2.5c-1.02 0-2.035.16-3.005.485L6.26 7.9a5.49 5.49 0 0 0-3.76 5.22v1c0-2.37 1.51-4.47 3.76-5.22l14.735-4.915A9.5 9.5 0 0 1 24 3.5c1.02 0 2.035.16 3.005.485l14.735 4.91a5.49 5.49 0 0 1 3.76 5.22v-1c0-2.37-1.51-4.47-3.76-5.22z"></path><path fill="#F6F7FB" d="M38.5 19.865H36v2.5h2.5zM41 17.365h-2.5v2.5H41zM41 22.365h-2.5v2.5H41zM9.5 22.36H12v-2.5H9.5zM7 24.86h2.5v-2.5H7zM7 19.86h2.5v-2.5H7z"></path><path fill="#65B7FF" fill-rule="evenodd" d="M24 11c-4.695 0-8.5 1.41-8.5 3.16v3.16c0 1.745 3.805 3.16 8.5 3.16s8.5-1.41 8.5-3.16v-3.16c0-1.745-3.805-3.16-8.5-3.16m0 5.265c-4.835 0-7.44-1.495-7.44-2.105s2.605-2.105 7.44-2.105 7.44 1.495 7.44 2.105-2.605 2.105-7.44 2.105m-8.5 8.345v3.23c0 1.745 3.805 3.16 8.5 3.16s8.5-1.41 8.5-3.16v-3.23c-1.68 1.43-5.1 2.18-8.5 2.18s-6.82-.745-8.5-2.18m0-2.035v-3.23c1.68 1.435 5.1 2.18 8.5 2.18s6.82-.75 8.5-2.18v3.23c0 1.75-3.805 3.16-8.5 3.16s-8.5-1.415-8.5-3.16" clip-rule="evenodd"></path></g><defs><linearGradient id="b" x1="10" x2="41.465" y1="40.336" y2="45.798" gradientUnits="userSpaceOnUse"><stop stop-color="#F8E08E"></stop><stop offset="1" stop-color="#F1C325"></stop></linearGradient><linearGradient id="c" x1="0" x2="48" y1="0" y2="42" gradientUnits="userSpaceOnUse"><stop stop-color="#CED0E2"></stop><stop offset="1" stop-color="#A3A5C3"></stop></linearGradient><linearGradient id="d" x1="5.245" x2="42.468" y1="2.5" y2="40.009" gradientUnits="userSpaceOnUse"><stop stop-color="#3F4273"></stop><stop offset="1" stop-color="#252746"></stop></linearGradient><clipPath id="a"><path fill="#fff" d="M0 0h48v60H0z"></path></clipPath></defs></svg>