<svg xmlns="http://www.w3.org/2000/svg" height="100%" viewBox="0 0 48 60" fill="none" class="w-12 flex-shrink-0"><g clip-path="url(#a)"><path fill="#A5820B" d="M35.055 59.76 24 53.835 12.945 59.76c-1.33.715-2.945-.25-2.945-1.765V40.59h28v17.405c0 1.51-1.61 2.475-2.945 1.765"></path><path fill="url(#b)" d="M35.055 58.76 24 52.835 12.945 58.76c-1.33.715-2.945-.25-2.945-1.765V39.59h28v17.405c0 1.51-1.61 2.475-2.945 1.765"></path><path fill="#626596" d="M0 15.12v17.99c0 3.445 2.205 6.5 5.47 7.59l14.735 4.91c2.465.82 5.125.82 7.59 0L42.53 40.7A8 8 0 0 0 48 33.11V15.12c0-3.445-2.205-6.5-5.47-7.59L27.795 2.615a12 12 0 0 0-7.59 0L5.47 7.53A8 8 0 0 0 0 15.12"></path><path fill="url(#c)" d="M0 13.115v15.99c0 3.445 2.205 6.5 5.47 7.59l14.735 4.91c2.465.82 5.125.82 7.59 0l14.735-4.91a8 8 0 0 0 5.47-7.59v-15.99c0-3.445-2.205-6.5-5.47-7.59L27.795.615a12 12 0 0 0-7.59 0L5.47 5.53A8 8 0 0 0 0 13.115"></path><path fill="url(#d)" d="M24 2.505c-1.02 0-2.035.16-3.005.485L6.26 7.9a5.49 5.49 0 0 0-3.76 5.22v15.99c0 2.37 1.51 4.47 3.76 5.22l14.735 4.91c1.94.645 4.07.645 6.01 0l14.735-4.91a5.49 5.49 0 0 0 3.76-5.22V13.115c0-2.37-1.51-4.47-3.76-5.22l-14.735-4.91A9.5 9.5 0 0 0 24 2.5z"></path><path fill="#626596" d="M41.74 7.9 27.005 2.985A9.5 9.5 0 0 0 24 2.5c-1.02 0-2.035.16-3.005.485L6.26 7.9a5.49 5.49 0 0 0-3.76 5.22v1c0-2.37 1.51-4.47 3.76-5.22l14.735-4.915A9.5 9.5 0 0 1 24 3.5c1.02 0 2.035.16 3.005.485l14.735 4.91a5.49 5.49 0 0 1 3.76 5.22v-1c0-2.37-1.51-4.47-3.76-5.22z"></path><path fill="#F6F7FB" d="M38.5 19.865H36v2.5h2.5zM41 17.365h-2.5v2.5H41zM41 22.365h-2.5v2.5H41zM9.5 22.36H12v-2.5H9.5zM7 24.86h2.5v-2.5H7zM7 19.86h2.5v-2.5H7z"></path><path fill="#65B7FF" d="M15.5 21.5v9h18v-18h-18zm14.505-.72c.431.1.823.325 1.126.648q.251.262.432.576c0 .023-.777.549-1.251.842-.017.012-.087-.063-.163-.177a1.02 1.02 0 0 0-.845-.508c-.546-.038-.897.25-.894.72a.66.66 0 0 0 .077.337c.12.249.343.397 1.043.7 1.289.554 1.84.92 2.183 1.44.383.576.468 1.506.209 2.194-.288.75-.994 1.257-1.992 1.426a5.5 5.5 0 0 1-1.37-.015 3.3 3.3 0 0 1-1.828-.943c-.166-.183-.488-.66-.468-.694q.08-.059.166-.105l.662-.38.517-.3.108.16c.182.261.414.483.683.654.576.302 1.362.26 1.75-.09a.78.78 0 0 0 .1-.996c-.144-.2-.432-.368-1.237-.72-.929-.4-1.33-.648-1.695-1.042a2.4 2.4 0 0 1-.494-.9 3.6 3.6 0 0 1-.032-1.152c.192-.897.864-1.524 1.847-1.71a4.6 4.6 0 0 1 1.366.038zm-4.225.755v.737h-2.337v6.657h-1.657V22.27h-2.343v-.72q-.01-.372.02-.743c.008-.011 1.44-.017 3.168-.014h3.14z"></path></g><defs><linearGradient id="b" x1="10" x2="41.465" y1="40.336" y2="45.798" gradientUnits="userSpaceOnUse"><stop stop-color="#F8E08E"></stop><stop offset="1" stop-color="#F1C325"></stop></linearGradient><linearGradient id="c" x1="0" x2="48" y1="0" y2="42" gradientUnits="userSpaceOnUse"><stop stop-color="#CED0E2"></stop><stop offset="1" stop-color="#A3A5C3"></stop></linearGradient><linearGradient id="d" x1="5.245" x2="42.468" y1="2.5" y2="40.009" gradientUnits="userSpaceOnUse"><stop stop-color="#3F4273"></stop><stop offset="1" stop-color="#252746"></stop></linearGradient><clipPath id="a"><path fill="#fff" d="M0 0h48v60H0z"></path></clipPath></defs></svg>