<svg xmlns="http://www.w3.org/2000/svg" height="100%" viewBox="0 0 48 60" fill="none" class="w-12 flex-shrink-0"><g clip-path="url(#a)"><path fill="#D5A80E" d="M35.055 59.76 24 53.835 12.945 59.76c-1.33.715-2.945-.25-2.945-1.765V40.59h28v17.405c0 1.51-1.61 2.475-2.945 1.765"></path><path fill="url(#b)" d="M35.055 58.76 24 52.835 12.945 58.76c-1.33.715-2.945-.25-2.945-1.765V39.59h28v17.405c0 1.51-1.61 2.475-2.945 1.765"></path><path fill="#626596" d="M0 15.12v17.99c0 3.445 2.205 6.5 5.47 7.59l14.735 4.91c2.465.82 5.125.82 7.59 0L42.53 40.7A8 8 0 0 0 48 33.11V15.12c0-3.445-2.205-6.5-5.47-7.59L27.795 2.615a12 12 0 0 0-7.59 0L5.47 7.53A8 8 0 0 0 0 15.12"></path><path fill="url(#c)" d="M0 13.115v15.99c0 3.445 2.205 6.5 5.47 7.59l14.735 4.91c2.465.82 5.125.82 7.59 0l14.735-4.91a8 8 0 0 0 5.47-7.59v-15.99c0-3.445-2.205-6.5-5.47-7.59L27.795.615a12 12 0 0 0-7.59 0L5.47 5.53A8 8 0 0 0 0 13.115"></path><path fill="url(#d)" d="M24 2.505c-1.02 0-2.035.16-3.005.485L6.26 7.9a5.49 5.49 0 0 0-3.76 5.22v15.99c0 2.37 1.51 4.47 3.76 5.22l14.735 4.91c1.94.645 4.07.645 6.01 0l14.735-4.91a5.49 5.49 0 0 0 3.76-5.22V13.115c0-2.37-1.51-4.47-3.76-5.22l-14.735-4.91A9.5 9.5 0 0 0 24 2.5z"></path><path fill="#626596" d="M41.74 7.9 27.005 2.985A9.5 9.5 0 0 0 24 2.5c-1.02 0-2.035.16-3.005.485L6.26 7.9a5.49 5.49 0 0 0-3.76 5.22v1c0-2.37 1.51-4.47 3.76-5.22l14.735-4.915A9.5 9.5 0 0 1 24 3.5c1.02 0 2.035.16 3.005.485l14.735 4.91a5.49 5.49 0 0 1 3.76 5.22v-1c0-2.37-1.51-4.47-3.76-5.22z"></path><path fill="#F6F7FB" d="M38.5 19.865H36v2.5h2.5zM41 17.365h-2.5v2.5H41zM41 22.365h-2.5v2.5H41zM9.5 22.36H12v-2.5H9.5zM7 24.86h2.5v-2.5H7zM7 19.86h2.5v-2.5H7z"></path><path fill="#65B7FF" fill-rule="evenodd" d="M30.38 17.305c2.79.86 4.62 2.24 4.62 3.7v.01c0 1.45-1.82 2.83-4.6 3.69.65 2.84.37 5.1-.89 5.83-.29.17-.63.25-1.01.25-1.23 0-2.85-.87-4.48-2.39-1.63 1.52-3.25 2.4-4.48 2.4-.38 0-.72-.08-1.01-.25-1.27-.73-1.56-3-.91-5.85-2.79-.86-4.62-2.25-4.62-3.7s1.82-2.83 4.61-3.69c-.65-2.84-.37-5.1.89-5.83.29-.17.63-.25 1.01-.25 1.23 0 2.85.86 4.48 2.38 1.64-1.53 3.25-2.4 4.48-2.4.37 0 .71.08 1 .25 1.27.73 1.56 3 .91 5.85m-1.4-4.97a1 1 0 0 0-.51-.12h-.01c-.93 0-2.3.74-3.76 2.1.64.66 1.26 1.41 1.87 2.24 1.01.11 1.97.27 2.85.49.1-.45.18-.9.23-1.32.2-1.71-.06-3.04-.67-3.39m-8.3 12.02c-.22-.34-.44-.69-.65-1.05l.01.01c-.21-.36-.41-.72-.59-1.08-.24.6-.44 1.19-.61 1.77.59.14 1.2.26 1.84.35m-.01-6.69c-.64.09-1.26.21-1.85.35v.01c.17.58.38 1.18.62 1.78.18-.36.37-.72.58-1.08s.43-.71.65-1.06m.22 1.56c-.34.59-.65 1.19-.93 1.79.28.6.59 1.19.93 1.78.35.6.72 1.17 1.09 1.7a22.6 22.6 0 0 0 4.05 0q.555-.795 1.08-1.71c.34-.59.65-1.19.93-1.79-.28-.6-.59-1.19-.93-1.78-.35-.6-.72-1.17-1.09-1.7a22.6 22.6 0 0 0-4.05 0q-.555.795-1.08 1.71m7.66 2.98c-.18.36-.37.72-.58 1.08s-.43.71-.65 1.06c.64-.1 1.26-.22 1.85-.36a20 20 0 0 0-.62-1.78m-1.23-4.55c.22.34.44.69.65 1.05l-.01-.01c.21.36.41.72.59 1.08.24-.6.44-1.19.61-1.77-.59-.14-1.2-.26-1.84-.35M24 16.415c.41 0 .83.01 1.23.03-.42-.52-.83-1-1.25-1.43-.41.43-.83.91-1.23 1.43.41-.03.84-.03 1.25-.03m-4.48-4.19c-.21 0-.39.04-.52.12h.01c-.6.36-.86 1.69-.65 3.4.05.42.13.85.23 1.3.88-.22 1.84-.38 2.85-.49.59-.83 1.22-1.58 1.85-2.24-1.47-1.35-2.84-2.09-3.77-2.09m-1.66 11.507c-.436-.14-.863-.288-1.25-.457-1.59-.68-2.61-1.57-2.61-2.27s1.03-1.6 2.61-2.27c.39-.17.81-.31 1.24-.45.26.88.59 1.79 1.01 2.73-.41.929-.74 1.838-1 2.717m1.16 5.953q.21.12.51.12c.94 0 2.31-.74 3.77-2.1-.64-.66-1.26-1.41-1.87-2.24-1.01-.11-1.97-.27-2.85-.49-.1.45-.18.9-.23 1.32-.2 1.71.06 3.04.67 3.39m3.74-4.12c.42.52.83 1 1.25 1.43.41-.43.83-.91 1.23-1.43-.41.03-.84.03-1.25.03s-.83-.01-1.23-.03m5.73 4.22c.21 0 .39-.04.52-.12H29c.6-.36.86-1.69.65-3.4-.05-.41-.13-.85-.23-1.3-.88.22-1.84.38-2.85.49-.59.83-1.22 1.58-1.85 2.24 1.47 1.35 2.84 2.09 3.77 2.09m1.66-6.06c.43-.14.85-.28 1.24-.45 1.59-.67 2.62-1.57 2.62-2.27s-1.02-1.59-2.61-2.27c-.39-.17-.82-.32-1.26-.46-.26.88-.59 1.79-1 2.72.42.94.75 1.85 1.01 2.73m-4.1-2.72c0 1.13-.92 2.05-2.05 2.05s-2.05-.92-2.05-2.05.92-2.05 2.05-2.05 2.05.92 2.05 2.05" clip-rule="evenodd"></path></g><defs><linearGradient id="b" x1="10" x2="41.465" y1="40.336" y2="45.798" gradientUnits="userSpaceOnUse"><stop stop-color="#F8E08E"></stop><stop offset="1" stop-color="#F1C325"></stop></linearGradient><linearGradient id="c" x1="0" x2="48" y1="0" y2="42" gradientUnits="userSpaceOnUse"><stop stop-color="#CED0E2"></stop><stop offset="1" stop-color="#A3A5C3"></stop></linearGradient><linearGradient id="d" x1="5.245" x2="42.468" y1="2.5" y2="40.009" gradientUnits="userSpaceOnUse"><stop stop-color="#3F4273"></stop><stop offset="1" stop-color="#252746"></stop></linearGradient><clipPath id="a"><path fill="#fff" d="M0 0h48v60H0z"></path></clipPath></defs></svg>