<svg xmlns="http://www.w3.org/2000/svg" height="100%" viewBox="0 0 48 60" fill="none" class="w-12 flex-shrink-0"><g clip-path="url(#a)"><path fill="#A5820B" d="M35.055 59.76 24 53.835 12.945 59.76c-1.33.715-2.945-.25-2.945-1.765V40.59h28v17.405c0 1.51-1.61 2.475-2.945 1.765"></path><path fill="url(#b)" d="M35.055 58.76 24 52.835 12.945 58.76c-1.33.715-2.945-.25-2.945-1.765V39.59h28v17.405c0 1.51-1.61 2.475-2.945 1.765"></path><path fill="#626596" d="M0 15.12v17.99c0 3.445 2.205 6.5 5.47 7.59l14.735 4.91c2.465.82 5.125.82 7.59 0L42.53 40.7A8 8 0 0 0 48 33.11V15.12c0-3.445-2.205-6.5-5.47-7.59L27.795 2.615a12 12 0 0 0-7.59 0L5.47 7.53A8 8 0 0 0 0 15.12"></path><path fill="url(#c)" d="M0 13.115v15.99c0 3.445 2.205 6.5 5.47 7.59l14.735 4.91c2.465.82 5.125.82 7.59 0l14.735-4.91a8 8 0 0 0 5.47-7.59v-15.99c0-3.445-2.205-6.5-5.47-7.59L27.795.615a12 12 0 0 0-7.59 0L5.47 5.53A8 8 0 0 0 0 13.115"></path><path fill="url(#d)" d="M24 2.505c-1.02 0-2.035.16-3.005.485L6.26 7.9a5.49 5.49 0 0 0-3.76 5.22v15.99c0 2.37 1.51 4.47 3.76 5.22l14.735 4.91c1.94.645 4.07.645 6.01 0l14.735-4.91a5.49 5.49 0 0 0 3.76-5.22V13.115c0-2.37-1.51-4.47-3.76-5.22l-14.735-4.91A9.5 9.5 0 0 0 24 2.5z"></path><path fill="#626596" d="M41.74 7.9 27.005 2.985A9.5 9.5 0 0 0 24 2.5c-1.02 0-2.035.16-3.005.485L6.26 7.9a5.49 5.49 0 0 0-3.76 5.22v1c0-2.37 1.51-4.47 3.76-5.22l14.735-4.915A9.5 9.5 0 0 1 24 3.5c1.02 0 2.035.16 3.005.485l14.735 4.91a5.49 5.49 0 0 1 3.76 5.22v-1c0-2.37-1.51-4.47-3.76-5.22z"></path><path fill="#F6F7FB" d="M38.5 19.865H36v2.5h2.5zM41 17.365h-2.5v2.5H41zM41 22.365h-2.5v2.5H41zM9.5 22.36H12v-2.5H9.5zM7 24.86h2.5v-2.5H7zM7 19.86h2.5v-2.5H7z"></path><path fill="#FF9C6E" d="M32.925 15.25a3.8 3.8 0 0 0-.375-1.125 3.7 3.7 0 0 0-.695-.955c-.29-.29-.61-.51-.95-.7a3.9 3.9 0 0 0-1.12-.375c-.39-.07-.78-.1-1.19-.1-.185 0-9.33 0-9.415.015a8 8 0 0 0-.885.085c-.29.05-.58.135-.85.24-.085.035-.185.085-.27.12-.27.135-.51.305-.75.495-.07.07-.155.135-.22.205a3.873 3.873 0 0 0-1.07 2.08c-.07.39-.085.785-.1 1.19v9.135c.015.39.035.8.1 1.19s.185.765.375 1.125c.185.355.41.68.695.955.29.29.61.51.95.695.355.19.73.305 1.12.375s.78.1 1.19.1h9.125c.39-.015.8-.035 1.19-.1.39-.07.765-.185 1.12-.375.355-.185.68-.41.95-.695.29-.29.51-.615.695-.955.185-.355.305-.73.375-1.125s.07-11.11 0-11.5zM29.8 26.96c-.78-1.54-2.205-1.155-2.935-.77-.065.035-.13.085-.195.115 0 .015-.015.015-.015.015-1.51.835-3.55.885-5.59-.015a9.1 9.1 0 0 1-4.035-3.58c.47.35.975.67 1.51.92 2.155 1.055 4.33.97 5.87 0-2.19-1.74-4.02-4-5.415-5.84-.26-.32-.505-.67-.715-1.02 1.685 1.57 4.33 3.565 5.285 4.115-2.01-2.19-3.795-4.9-3.71-4.815 3.175 3.295 6.11 5.17 6.11 5.17.115.05.195.1.26.15.065-.165.115-.335.16-.5.505-1.905-.065-4.1-1.36-5.905 2.95 1.825 4.685 5.3 3.97 8.23l-.05.2c1.49 1.875 1.085 3.88.86 3.53z"></path></g><defs><linearGradient id="b" x1="10" x2="41.465" y1="40.336" y2="45.798" gradientUnits="userSpaceOnUse"><stop stop-color="#F8E08E"></stop><stop offset="1" stop-color="#F1C325"></stop></linearGradient><linearGradient id="c" x1="0" x2="48" y1="0" y2="42" gradientUnits="userSpaceOnUse"><stop stop-color="#CED0E2"></stop><stop offset="1" stop-color="#A3A5C3"></stop></linearGradient><linearGradient id="d" x1="5.245" x2="42.468" y1="2.5" y2="40.009" gradientUnits="userSpaceOnUse"><stop stop-color="#3F4273"></stop><stop offset="1" stop-color="#252746"></stop></linearGradient><clipPath id="a"><path fill="#fff" d="M0 0h48v60H0z"></path></clipPath></defs></svg>