<svg width="16" height="14" viewBox="0 0 16 14" fill="none" xmlns="http://www.w3.org/2000/svg">
<path d="M0.843414 11.8462C0.377611 11.8462 5.90388e-06 12.3283 0 12.9231C5.90388e-06 13.5179 0.377611 14 0.843414 14L15.1566 14C15.6223 14 16 13.5178 16 12.9231C16 12.3284 15.6223 11.8462 15.1566 11.8462L0.843414 11.8462Z" fill="#393939"/>
<path d="M0.843414 0C0.377611 7.53844e-06 5.90388e-06 0.482154 0 1.07693C5.90388e-06 1.6717 0.377611 2.15385 0.843414 2.15385L15.1566 2.15384C15.6223 2.15384 16 1.67166 16 1.07693C16 0.482197 15.6223 1.95136e-05 15.1566 1.95136e-05L0.843414 0Z" fill="#393939"/>
<path d="M0.843414 5.92308C0.377611 5.92308 5.90388e-06 6.40523 0 7C5.90388e-06 7.59478 0.377611 8.07692 0.843414 8.07692L15.1566 8.07691C15.6223 8.07691 16 7.59473 16 7C16 6.40527 15.6223 5.9231 15.1566 5.9231L0.843414 5.92308Z" fill="#393939"/>
</svg>
