<svg width="163" height="257" viewBox="0 0 163 257" fill="none" xmlns="http://www.w3.org/2000/svg">
<path fill-rule="evenodd" clip-rule="evenodd" d="M81.6457 0.945999C109.619 0.945999 130.109 6.40789 143.384 17.3317C156.368 28.2671 163 42.0845 163 58.4702V199.422C163 205.174 161.846 211.508 159.83 218.12C157.813 225.023 153.769 231.345 147.708 236.818C141.647 242.571 133.291 247.161 122.906 251.194C112.509 254.936 98.6625 256.946 81.9371 256.946C64.9203 256.946 51.3535 254.936 40.9685 251.194C30.5836 247.452 22.2034 242.571 16.1543 236.818C10.0935 231.066 6.06078 224.732 4.03275 218.108C2.01637 211.217 0.862496 204.884 0.862496 199.422V176.993C0.862496 164.907 4.0444 153.972 10.0935 144.187C16.4457 134.414 25.094 127.22 36.6444 123.188C42.4138 121.177 48.766 119.167 56.2604 116.575C63.475 113.984 70.678 111.695 77.6013 109.091C84.5246 106.79 90.3056 104.49 95.4922 102.77C100.691 100.759 103.861 99.8876 105.015 99.3181C106.169 98.7371 107.894 97.8771 109.91 96.7266C111.938 95.5762 113.954 93.8562 115.971 91.8458C117.999 89.5332 119.444 86.9533 120.878 84.3619C122.323 81.4798 122.906 78.0284 122.906 74.2864V65.3731C122.906 62.2121 122.323 59.0512 120.878 55.5998C119.724 52.1367 117.416 49.2663 114.246 46.3843C111.075 43.5139 106.74 41.2129 101.541 39.4814C96.3547 37.7615 89.7228 36.9015 81.6457 36.9015C65.7828 36.9015 55.1065 40.0624 49.3371 46.6748C44.3603 52.485 41.422 59.7562 40.9685 67.3835C40.9685 69.115 39.5233 70.2655 37.7983 70.2655H3.18191C2.3419 70.2595 1.53784 69.9249 0.94276 69.3337C0.347679 68.7426 0.00914213 67.9421 0 67.1046L0 58.7607C0 50.7073 1.44526 43.2234 4.61552 36.3321C7.50604 29.4176 12.4013 23.0841 19.3246 17.9127C25.9681 12.7297 34.3366 8.41833 44.7216 5.54793C54.8151 2.66591 67.2164 0.945999 81.6457 0.945999ZM122.614 127.22C122.35 128.696 121.776 130.099 120.931 131.339C120.085 132.579 118.987 133.626 117.707 134.414C115.108 136.134 112.812 136.994 110.493 137.865C105.597 139.585 100.399 141.317 94.9211 143.327C89.4431 145.337 84.2448 147.36 79.3379 148.789C73.5685 150.811 68.0905 152.531 63.1836 154.541C59.253 156.255 55.5687 158.482 52.2276 161.165C49.3371 163.745 46.7379 166.918 44.4185 170.939C42.1224 174.971 40.9685 179.864 40.9685 185.895C40.9685 197.981 43.8474 206.894 49.6168 212.937C55.3862 218.69 66.0625 221.85 81.6457 221.85C97.5086 221.85 108.476 218.69 114.246 212.647C120.015 206.325 122.906 197.69 122.906 186.185V127.22H122.614Z" fill="white"/>
</svg>
