<svg width="266" height="230" viewBox="0 0 266 230" fill="none" xmlns="http://www.w3.org/2000/svg">
<path d="M5 3L133.256 225M5 3H133.388M5 3L69.5132 40.0429M261 3H133.388M261 3L197.388 113.871M261 3L197.388 40.0429M133.256 225L197.388 113.871M133.256 225V151.171M133.388 3V77.0857M133.388 3L69.5132 40.0429M133.388 3L197.388 40.0429M133.388 77.0857L197.388 113.871M133.388 77.0857L69.266 113.888M197.388 113.871V40.0429M197.388 113.871L133.256 151.171M69.266 113.888L69.5132 40.0429M69.266 113.888L133.256 151.171" stroke="black" stroke-width="5"/>
</svg>
