<svg width="19" height="24" viewBox="0 0 19 24" fill="none" xmlns="http://www.w3.org/2000/svg">
<mask id="mask0_1580_18" style="mask-type:luminance" maskUnits="userSpaceOnUse" x="0" y="0" width="19" height="24">
<path d="M19 0H0V24H19V0Z" fill="white"/>
<path d="M14.2917 17H4.70833C4.17906 17 3.75 17.4477 3.75 18C3.75 18.5523 4.17906 19 4.70833 19H14.2917C14.8209 19 15.25 18.5523 15.25 18C15.25 17.4477 14.8209 17 14.2917 17Z" fill="black"/>
<path d="M14.2917 12.2H4.70833C4.17906 12.2 3.75 12.6477 3.75 13.2C3.75 13.7522 4.17906 14.2 4.70833 14.2H14.2917C14.8209 14.2 15.25 13.7522 15.25 13.2C15.25 12.6477 14.8209 12.2 14.2917 12.2Z" fill="black"/>
<path d="M10 7.3999H4.75C4.19772 7.3999 3.75 7.84762 3.75 8.3999C3.75 8.95219 4.19772 9.3999 4.75 9.3999H10C10.5523 9.3999 11 8.95219 11 8.3999C11 7.84762 10.5523 7.3999 10 7.3999Z" fill="black"/>
</mask>
<g mask="url(#mask0_1580_18)">
<path d="M2.11111 0H12.6667L19 6.54545V21.8182C19 22.3968 18.7776 22.9518 18.3817 23.361C17.9858 23.7701 17.4488 24 16.8889 24H2.11111C1.55121 24 1.01424 23.7701 0.61833 23.361C0.22242 22.9518 0 22.3968 0 21.8182V2.18182C0 1.60316 0.22242 1.04821 0.61833 0.63904C1.01424 0.229869 1.55121 0 2.11111 0Z" fill="#F1EFEC"/>
</g>
</svg>
