<svg width="24" height="25" viewBox="0 0 24 25" fill="none" xmlns="http://www.w3.org/2000/svg">
<path d="M12 0.297119C5.37 0.297119 0 5.80654 0 12.6018C0 18.0394 3.438 22.6506 8.205 24.2759C8.805 24.3917 9.025 24.0113 9.025 23.6842C9.025 23.392 9.015 22.6178 9.01 21.5924C5.672 22.3348 4.968 19.9415 4.968 19.9415C4.422 18.5214 3.633 18.142 3.633 18.142C2.546 17.3791 3.717 17.3945 3.717 17.3945C4.922 17.4806 5.555 18.6619 5.555 18.6619C6.625 20.5434 8.364 20 9.05 19.6852C9.158 18.8895 9.467 18.3471 9.81 18.0394C7.145 17.7318 4.344 16.6736 4.344 11.9589C4.344 10.6156 4.809 9.51845 5.579 8.65712C5.444 8.34643 5.039 7.09545 5.684 5.40048C5.684 5.40048 6.689 5.07031 8.984 6.66171C9.944 6.38793 10.964 6.25258 11.984 6.24643C13.004 6.25258 14.024 6.38793 14.984 6.66171C17.264 5.07031 18.269 5.40048 18.269 5.40048C18.914 7.09545 18.509 8.34643 18.389 8.65712C19.154 9.51845 19.619 10.6156 19.619 11.9589C19.619 16.6859 16.814 17.7267 14.144 18.0292C14.564 18.3983 14.954 19.153 14.954 20.3055C14.954 21.9523 14.939 23.2751 14.939 23.675C14.939 23.998 15.149 24.3825 15.764 24.2595C20.565 22.6455 24 18.0312 24 12.6018C24 5.80654 18.627 0.297119 12 0.297119Z" fill="#F1EFEC"/>
</svg>
