<?xml version="1.0" encoding="UTF-8"?>
<svg id="Layer_1" xmlns="http://www.w3.org/2000/svg" xmlns:xlink="http://www.w3.org/1999/xlink" viewBox="0 0 100 100">
  <defs>
    <style>
      .cls-1 {
        fill: url(#linear-gradient-2);
      }

      .cls-2 {
        fill: url(#linear-gradient-3);
      }

      .cls-3 {
        fill: url(#linear-gradient);
      }
    </style>
    <linearGradient id="linear-gradient" x1="82.43" y1="-.52" x2="17.08" y2="62.87" gradientUnits="userSpaceOnUse">
      <stop offset=".23" stop-color="#ac87eb"/>
      <stop offset=".28" stop-color="#9785ed"/>
      <stop offset=".39" stop-color="#6d81f3"/>
      <stop offset=".5" stop-color="#4b7ef8"/>
      <stop offset=".6" stop-color="#347cfb"/>
      <stop offset=".7" stop-color="#257bfd"/>
      <stop offset=".79" stop-color="#217bfe"/>
    </linearGradient>
    <linearGradient id="linear-gradient-2" x1="101.48" y1="19.12" x2="36.13" y2="82.51" xlink:href="#linear-gradient"/>
    <linearGradient id="linear-gradient-3" x1="91.96" y1="9.3" x2="26.61" y2="72.69" xlink:href="#linear-gradient"/>
  </defs>
  <path class="cls-3" d="M32.47,21.91c-1.17-1.17-3.07-1.17-4.24,0L2.3,47.84c-.59.59-.88,1.38-.88,2.16,0,.78.28,1.56.88,2.16l25.93,25.93c.59.59,1.35.88,2.12.88s1.54-.29,2.12-.88c1.17-1.17,1.17-3.07,0-4.24l-23.84-23.84,23.84-23.84c1.17-1.17,1.17-3.07,0-4.24Z"/>
  <path class="cls-1" d="M98.58,50c0,.78-.28,1.56-.87,2.15l-25.93,25.93c-.59.59-1.36.88-2.13.88s-1.53-.29-2.12-.88c-1.17-1.17-1.17-3.07,0-4.24l23.85-23.84-23.85-23.85c-1.17-1.17-1.17-3.07,0-4.24,1.18-1.17,3.07-1.17,4.25,0l25.93,25.93c.59.6.88,1.38.87,2.16Z"/>
  <path class="cls-2" d="M59.64,35.03l-13.75,32.29c-.48,1.14-1.59,1.82-2.76,1.82-.39,0-.79-.07-1.17-.24-1.53-.65-2.24-2.41-1.59-3.93l13.74-32.29c.65-1.53,2.42-2.24,3.94-1.59,1.52.65,2.23,2.41,1.59,3.94Z"/>
</svg>