<svg width="25" height="25" viewBox="0 0 25 25" fill="none" xmlns="http://www.w3.org/2000/svg">
<path d="M21.5257 0.192871C22.233 0.192871 22.9112 0.473823 23.4113 0.97392C23.9114 1.47402 24.1924 2.15229 24.1924 2.85954V21.5262C24.1924 22.2334 23.9114 22.9117 23.4113 23.4118C22.9112 23.9119 22.233 24.1929 21.5257 24.1929H2.85905C2.15181 24.1929 1.47353 23.9119 0.973431 23.4118C0.473334 22.9117 0.192383 22.2334 0.192383 21.5262V2.85954C0.192383 2.15229 0.473334 1.47402 0.973431 0.97392C1.47353 0.473823 2.15181 0.192871 2.85905 0.192871H21.5257ZM20.8591 20.8595V13.7929C20.8591 12.6401 20.4011 11.5345 19.5859 10.7193C18.7708 9.90416 17.6652 9.4462 16.5124 9.4462C15.379 9.4462 14.059 10.1395 13.419 11.1795V9.69954H9.69905V20.8595H13.419V14.2862C13.419 13.2595 14.2457 12.4195 15.2724 12.4195C15.7675 12.4195 16.2422 12.6162 16.5923 12.9663C16.9424 13.3163 17.1391 13.7911 17.1391 14.2862V20.8595H20.8591ZM5.36572 7.60621C5.9598 7.60621 6.52955 7.37021 6.94964 6.95012C7.36972 6.53004 7.60572 5.96029 7.60572 5.3662C7.60572 4.1262 6.60572 3.11287 5.36572 3.11287C4.7681 3.11287 4.19495 3.35028 3.77237 3.77286C3.34979 4.19544 3.11238 4.76858 3.11238 5.3662C3.11238 6.6062 4.12572 7.60621 5.36572 7.60621ZM7.21905 20.8595V9.69954H3.52572V20.8595H7.21905Z" fill="#F1EFEC"/>
</svg>
