<svg width="24" height="24" viewBox="0 0 24 24" fill="none" xmlns="http://www.w3.org/2000/svg">
<path d="M24 2L18.0365 11.9883L18.0362 11.9887L12.024 22L6.02692 12.0249L5.99371 12.0063L5.9938 11.9698L0 2H24ZM11.7972 20.7515V15.2555L6.81635 12.4668L11.7972 20.7515ZM12.2506 15.2556V20.7509L17.2179 12.4794L12.2506 15.2556ZM6.67377 11.8827L12.024 14.8782L17.3869 11.8809L12.0358 8.9253L6.67377 11.8827ZM6.46964 5.57162L6.44883 11.5043L11.8092 8.54795V2.59606L6.46964 5.57162ZM12.2626 8.54803L17.6131 11.5033V5.57162L12.2626 2.59564V8.54803ZM5.99681 11.1036L6.01621 5.57188L1.01075 2.81001L5.99681 11.1036ZM18.0665 5.5712V11.0623L22.9901 2.81597L18.0665 5.5712ZM6.24266 5.19444L11.1929 2.43573H1.24304L6.24266 5.19444ZM17.8395 5.19402L22.7687 2.43573H12.8803L17.8395 5.19402Z" fill="white"/>
</svg>
